<svg width="32" height="32" viewBox="0 0 32 32" fill="none" xmlns="http://www.w3.org/2000/svg">
<path d="M27.3115 4.68852C24.2885 1.66557 20.2754 0 16 0C11.7246 0 7.71147 1.66557 4.68852 4.68852C1.66557 7.71147 0 11.7246 0 16C0 20.2754 1.66557 24.2885 4.68852 27.3115C7.71147 30.3344 11.7246 32 16 32C18.6033 32 21.1803 31.3639 23.4689 30.1508C24.0459 29.8492 24.2623 29.1344 23.9607 28.5574C23.659 27.9803 22.9443 27.7639 22.3672 28.0656C20.4197 29.0951 18.2229 29.6393 16 29.6393C8.47869 29.6393 2.36066 23.5213 2.36066 16C2.36066 8.47869 8.47869 2.36066 16 2.36066C23.5213 2.36066 29.6393 8.47869 29.6393 16C29.6393 18.5311 28.9311 19.9738 28.3344 20.7344C27.6984 21.5541 26.8459 22.0197 25.9934 22.0197C24.8066 22.0197 23.6066 21.0754 23.6066 18.9639V9.77705C23.6066 9.12787 23.0754 8.59672 22.4262 8.59672C21.777 8.59672 21.2459 9.12787 21.2459 9.77705V10.2951C19.777 8.81967 17.7508 7.9082 15.5082 7.9082C11.0426 7.90164 7.40984 11.5344 7.40984 16C7.40984 20.4656 11.0426 24.0984 15.5082 24.0984C16.3016 24.0984 17.082 23.9869 17.8295 23.7574C18.4525 23.5738 18.8066 22.9115 18.6229 22.2885C18.4393 21.6656 17.777 21.3115 17.1541 21.4951C16.623 21.6525 16.0656 21.7377 15.5082 21.7377C12.3475 21.7377 9.77049 19.1672 9.77049 16C9.77049 12.8393 12.341 10.2623 15.5082 10.2623C18.6754 10.2623 21.2459 12.8328 21.2459 16V18.9639C21.2459 22.518 23.6328 24.3803 25.9934 24.3803C27.5738 24.3803 29.1082 23.5803 30.1967 22.1836C31.377 20.6689 32 18.5311 32 16C32 11.7246 30.3344 7.71147 27.3115 4.68852Z" fill="white"/>
</svg>
