<svg width="32" height="32" viewBox="0 0 32 32" fill="none" xmlns="http://www.w3.org/2000/svg">
<path d="M31.0849 4.37474C30.6142 3.90317 29.8504 3.90236 29.3796 4.37273L14.9113 18.8029L9.69117 13.1333C9.2401 12.6437 8.47748 12.6119 7.98704 13.0629C7.49698 13.514 7.4656 14.277 7.91667 14.767L13.987 21.3596C14.2094 21.6012 14.5205 21.7415 14.8485 21.7484C14.8574 21.7487 14.8659 21.7487 14.8743 21.7487C15.1931 21.7487 15.4998 21.6221 15.7257 21.397L31.0825 6.08042C31.5545 5.61011 31.5553 4.8463 31.0849 4.37474Z" fill="white"/>
<path d="M30.7939 14.7939C30.1278 14.7939 29.5879 15.3338 29.5879 16C29.5879 23.4927 23.4927 29.5879 16 29.5879C8.50775 29.5879 2.41206 23.4927 2.41206 16C2.41206 8.50775 8.50775 2.41206 16 2.41206C16.6661 2.41206 17.2061 1.87219 17.2061 1.20606C17.2061 0.539875 16.6661 0 16 0C7.1775 0 0 7.1775 0 16C0 24.8221 7.1775 32 16 32C24.8221 32 32 24.8221 32 16C32 15.3339 31.4601 14.7939 30.7939 14.7939Z" fill="white"/>
</svg>
