<svg width="239" height="15" viewBox="0 0 239 15" fill="none" xmlns="http://www.w3.org/2000/svg">
<path d="M10.386 10.931C10.518 10.931 10.635 10.982 10.737 11.084L11.691 12.119C11.163 12.773 10.512 13.274 9.738 13.622C8.97 13.97 8.046 14.144 6.966 14.144C6 14.144 5.13 13.979 4.356 13.649C3.588 13.319 2.931 12.86 2.385 12.272C1.839 11.684 1.419 10.982 1.125 10.166C0.837 9.35 0.693 8.459 0.693 7.493C0.693 6.515 0.849 5.621 1.161 4.811C1.473 3.995 1.911 3.293 2.475 2.705C3.045 2.117 3.723 1.661 4.509 1.337C5.295 1.007 6.165 0.842 7.119 0.842C8.067 0.842 8.907 0.998 9.639 1.31C10.377 1.622 11.004 2.03 11.52 2.534L10.71 3.659C10.662 3.731 10.599 3.794 10.521 3.848C10.449 3.902 10.347 3.929 10.215 3.929C10.125 3.929 10.032 3.905 9.936 3.857C9.84 3.803 9.735 3.74 9.621 3.668C9.507 3.59 9.375 3.506 9.225 3.416C9.075 3.326 8.901 3.245 8.703 3.173C8.505 3.095 8.274 3.032 8.01 2.984C7.752 2.93 7.452 2.903 7.11 2.903C6.528 2.903 5.994 3.008 5.508 3.218C5.028 3.422 4.614 3.722 4.266 4.118C3.918 4.508 3.648 4.988 3.456 5.558C3.264 6.122 3.168 6.767 3.168 7.493C3.168 8.225 3.27 8.876 3.474 9.446C3.684 10.016 3.966 10.496 4.32 10.886C4.674 11.276 5.091 11.576 5.571 11.786C6.051 11.99 6.567 12.092 7.119 12.092C7.449 12.092 7.746 12.074 8.01 12.038C8.28 12.002 8.526 11.945 8.748 11.867C8.976 11.789 9.189 11.69 9.387 11.57C9.591 11.444 9.792 11.291 9.99 11.111C10.05 11.057 10.113 11.015 10.179 10.985C10.245 10.949 10.314 10.931 10.386 10.931ZM20.9724 12.002V14H13.3494V0.985999H15.7704V12.002H20.9724ZM29.577 9.086L27.993 4.757C27.915 4.565 27.834 4.337 27.75 4.073C27.666 3.809 27.582 3.524 27.498 3.218C27.42 3.524 27.339 3.812 27.255 4.082C27.171 4.346 27.09 4.577 27.012 4.775L25.437 9.086H29.577ZM33.852 14H31.98C31.77 14 31.599 13.949 31.467 13.847C31.335 13.739 31.236 13.607 31.17 13.451L30.198 10.796H24.807L23.835 13.451C23.787 13.589 23.694 13.715 23.556 13.829C23.418 13.943 23.247 14 23.043 14H21.153L26.274 0.985999H28.74L33.852 14ZM40.1206 12.047C40.5886 12.047 41.0056 11.969 41.3716 11.813C41.7436 11.657 42.0556 11.438 42.3076 11.156C42.5596 10.874 42.7516 10.532 42.8836 10.13C43.0216 9.728 43.0906 9.278 43.0906 8.78V0.985999H45.5116V8.78C45.5116 9.554 45.3856 10.271 45.1336 10.931C44.8876 11.585 44.5306 12.152 44.0626 12.632C43.6006 13.106 43.0366 13.478 42.3706 13.748C41.7046 14.012 40.9546 14.144 40.1206 14.144C39.2806 14.144 38.5276 14.012 37.8616 13.748C37.1956 13.478 36.6286 13.106 36.1606 12.632C35.6986 12.152 35.3416 11.585 35.0896 10.931C34.8436 10.271 34.7206 9.554 34.7206 8.78V0.985999H37.1416V8.771C37.1416 9.269 37.2076 9.719 37.3396 10.121C37.4776 10.523 37.6726 10.868 37.9246 11.156C38.1826 11.438 38.4946 11.657 38.8606 11.813C39.2326 11.969 39.6526 12.047 40.1206 12.047ZM59.798 7.493C59.798 8.447 59.639 9.323 59.321 10.121C59.003 10.919 58.556 11.606 57.98 12.182C57.404 12.758 56.711 13.205 55.901 13.523C55.091 13.841 54.191 14 53.201 14H48.242V0.985999H53.201C54.191 0.985999 55.091 1.148 55.901 1.472C56.711 1.79 57.404 2.237 57.98 2.813C58.556 3.383 59.003 4.067 59.321 4.865C59.639 5.663 59.798 6.539 59.798 7.493ZM57.314 7.493C57.314 6.779 57.218 6.14 57.026 5.576C56.84 5.006 56.567 4.526 56.207 4.136C55.853 3.74 55.421 3.437 54.911 3.227C54.407 3.017 53.837 2.912 53.201 2.912H50.672V12.074H53.201C53.837 12.074 54.407 11.969 54.911 11.759C55.421 11.549 55.853 11.249 56.207 10.859C56.567 10.463 56.84 9.983 57.026 9.419C57.218 8.849 57.314 8.207 57.314 7.493ZM64.3653 14H61.9353V0.985999H64.3653V14ZM79.6901 7.493C79.6901 8.447 79.5311 9.332 79.2131 10.148C78.9011 10.958 78.4571 11.66 77.8811 12.254C77.3051 12.848 76.6121 13.313 75.8021 13.649C74.9921 13.979 74.0921 14.144 73.1021 14.144C72.1181 14.144 71.2211 13.979 70.4111 13.649C69.6011 13.313 68.9051 12.848 68.3231 12.254C67.7471 11.66 67.3001 10.958 66.9821 10.148C66.6641 9.332 66.5051 8.447 66.5051 7.493C66.5051 6.539 66.6641 5.657 66.9821 4.847C67.3001 4.031 67.7471 3.326 68.3231 2.732C68.9051 2.138 69.6011 1.676 70.4111 1.346C71.2211 1.01 72.1181 0.842 73.1021 0.842C73.7621 0.842 74.3831 0.92 74.9651 1.076C75.5471 1.226 76.0811 1.442 76.5671 1.724C77.0531 2 77.4881 2.339 77.8721 2.741C78.2621 3.137 78.5921 3.581 78.8621 4.073C79.1321 4.565 79.3361 5.099 79.4741 5.675C79.6181 6.251 79.6901 6.857 79.6901 7.493ZM77.2151 7.493C77.2151 6.779 77.1191 6.14 76.9271 5.576C76.7351 5.006 76.4621 4.523 76.1081 4.127C75.7541 3.731 75.3221 3.428 74.8121 3.218C74.3081 3.008 73.7381 2.903 73.1021 2.903C72.4661 2.903 71.8931 3.008 71.3831 3.218C70.8791 3.428 70.4471 3.731 70.0871 4.127C69.7331 4.523 69.4601 5.006 69.2681 5.576C69.0761 6.14 68.9801 6.779 68.9801 7.493C68.9801 8.207 69.0761 8.849 69.2681 9.419C69.4601 9.983 69.7331 10.463 70.0871 10.859C70.4471 11.249 70.8791 11.549 71.3831 11.759C71.8931 11.969 72.4661 12.074 73.1021 12.074C73.7381 12.074 74.3081 11.969 74.8121 11.759C75.3221 11.549 75.7541 11.249 76.1081 10.859C76.4621 10.463 76.7351 9.983 76.9271 9.419C77.1191 8.849 77.2151 8.207 77.2151 7.493Z" fill="white"/>
<path d="M92.5442 7.475V12.74C91.8842 13.226 91.1792 13.583 90.4292 13.811C89.6852 14.033 88.8872 14.144 88.0352 14.144C86.9732 14.144 86.0102 13.979 85.1462 13.649C84.2882 13.319 83.5532 12.86 82.9412 12.272C82.3352 11.684 81.8672 10.982 81.5372 10.166C81.2072 9.35 81.0422 8.459 81.0422 7.493C81.0422 6.515 81.2012 5.618 81.5192 4.802C81.8372 3.986 82.2872 3.284 82.8692 2.696C83.4572 2.108 84.1682 1.652 85.0022 1.328C85.8362 1.004 86.7722 0.842 87.8102 0.842C88.3382 0.842 88.8302 0.884 89.2862 0.967999C89.7482 1.052 90.1742 1.169 90.5642 1.319C90.9602 1.463 91.3202 1.64 91.6442 1.85C91.9682 2.06 92.2652 2.291 92.5352 2.543L91.8422 3.641C91.7342 3.815 91.5932 3.923 91.4192 3.965C91.2452 4.001 91.0562 3.956 90.8522 3.83C90.6542 3.716 90.4562 3.602 90.2582 3.488C90.0602 3.374 89.8382 3.275 89.5922 3.191C89.3522 3.107 89.0792 3.038 88.7732 2.984C88.4732 2.93 88.1252 2.903 87.7292 2.903C87.0872 2.903 86.5052 3.011 85.9832 3.227C85.4672 3.443 85.0262 3.752 84.6602 4.154C84.2942 4.556 84.0122 5.039 83.8142 5.603C83.6162 6.167 83.5172 6.797 83.5172 7.493C83.5172 8.237 83.6222 8.903 83.8322 9.491C84.0482 10.073 84.3482 10.568 84.7322 10.976C85.1222 11.378 85.5902 11.687 86.1362 11.903C86.6822 12.113 87.2912 12.218 87.9632 12.218C88.4432 12.218 88.8722 12.167 89.2502 12.065C89.6282 11.963 89.9972 11.825 90.3572 11.651V9.293H88.7192C88.5632 9.293 88.4402 9.251 88.3502 9.167C88.2662 9.077 88.2242 8.969 88.2242 8.843V7.475H92.5442ZM101.595 9.086L100.011 4.757C99.9325 4.565 99.8515 4.337 99.7675 4.073C99.6835 3.809 99.5995 3.524 99.5155 3.218C99.4375 3.524 99.3565 3.812 99.2725 4.082C99.1885 4.346 99.1075 4.577 99.0295 4.775L97.4545 9.086H101.595ZM105.87 14H103.998C103.788 14 103.617 13.949 103.485 13.847C103.353 13.739 103.254 13.607 103.188 13.451L102.216 10.796H96.8245L95.8525 13.451C95.8045 13.589 95.7115 13.715 95.5735 13.829C95.4355 13.943 95.2645 14 95.0605 14H93.1705L98.2915 0.985999H100.758L105.87 14ZM111.15 7.178C111.606 7.178 112.002 7.121 112.338 7.007C112.68 6.893 112.959 6.737 113.175 6.539C113.397 6.335 113.562 6.095 113.67 5.819C113.778 5.543 113.832 5.24 113.832 4.91C113.832 4.25 113.613 3.743 113.175 3.389C112.743 3.035 112.08 2.858 111.186 2.858H109.638V7.178H111.15ZM117.378 14H115.191C114.777 14 114.477 13.838 114.291 13.514L111.555 9.347C111.453 9.191 111.339 9.08 111.213 9.014C111.093 8.948 110.913 8.915 110.673 8.915H109.638V14H107.217V0.985999H111.186C112.068 0.985999 112.824 1.079 113.454 1.265C114.09 1.445 114.609 1.7 115.011 2.03C115.419 2.36 115.719 2.756 115.911 3.218C116.103 3.674 116.199 4.178 116.199 4.73C116.199 5.168 116.133 5.582 116.001 5.972C115.875 6.362 115.689 6.716 115.443 7.034C115.203 7.352 114.903 7.631 114.543 7.871C114.189 8.111 113.784 8.3 113.328 8.438C113.484 8.528 113.628 8.636 113.76 8.762C113.892 8.882 114.012 9.026 114.12 9.194L117.378 14ZM125.659 9.086L124.075 4.757C123.997 4.565 123.916 4.337 123.832 4.073C123.748 3.809 123.664 3.524 123.58 3.218C123.502 3.524 123.421 3.812 123.337 4.082C123.253 4.346 123.172 4.577 123.094 4.775L121.519 9.086H125.659ZM129.934 14H128.062C127.852 14 127.681 13.949 127.549 13.847C127.417 13.739 127.318 13.607 127.252 13.451L126.28 10.796H120.889L119.917 13.451C119.869 13.589 119.776 13.715 119.638 13.829C119.5 13.943 119.329 14 119.125 14H117.235L122.356 0.985999H124.822L129.934 14ZM135.517 8.96V14H133.105V8.96L128.362 0.985999H130.495C130.705 0.985999 130.87 1.037 130.99 1.139C131.116 1.241 131.221 1.37 131.305 1.526L133.681 5.873C133.819 6.131 133.939 6.374 134.041 6.602C134.149 6.83 134.245 7.058 134.329 7.286C134.407 7.058 134.497 6.83 134.599 6.602C134.701 6.374 134.818 6.131 134.95 5.873L137.317 1.526C137.383 1.394 137.482 1.271 137.614 1.157C137.746 1.043 137.914 0.985999 138.118 0.985999H140.26L135.517 8.96ZM149.781 10.931C149.913 10.931 150.03 10.982 150.132 11.084L151.086 12.119C150.558 12.773 149.907 13.274 149.133 13.622C148.365 13.97 147.441 14.144 146.361 14.144C145.395 14.144 144.525 13.979 143.751 13.649C142.983 13.319 142.326 12.86 141.78 12.272C141.234 11.684 140.814 10.982 140.52 10.166C140.232 9.35 140.088 8.459 140.088 7.493C140.088 6.515 140.244 5.621 140.556 4.811C140.868 3.995 141.306 3.293 141.87 2.705C142.44 2.117 143.118 1.661 143.904 1.337C144.69 1.007 145.56 0.842 146.514 0.842C147.462 0.842 148.302 0.998 149.034 1.31C149.772 1.622 150.399 2.03 150.915 2.534L150.105 3.659C150.057 3.731 149.994 3.794 149.916 3.848C149.844 3.902 149.742 3.929 149.61 3.929C149.52 3.929 149.427 3.905 149.331 3.857C149.235 3.803 149.13 3.74 149.016 3.668C148.902 3.59 148.77 3.506 148.62 3.416C148.47 3.326 148.296 3.245 148.098 3.173C147.9 3.095 147.669 3.032 147.405 2.984C147.147 2.93 146.847 2.903 146.505 2.903C145.923 2.903 145.389 3.008 144.903 3.218C144.423 3.422 144.009 3.722 143.661 4.118C143.313 4.508 143.043 4.988 142.851 5.558C142.659 6.122 142.563 6.767 142.563 7.493C142.563 8.225 142.665 8.876 142.869 9.446C143.079 10.016 143.361 10.496 143.715 10.886C144.069 11.276 144.486 11.576 144.966 11.786C145.446 11.99 145.962 12.092 146.514 12.092C146.844 12.092 147.141 12.074 147.405 12.038C147.675 12.002 147.921 11.945 148.143 11.867C148.371 11.789 148.584 11.69 148.782 11.57C148.986 11.444 149.187 11.291 149.385 11.111C149.445 11.057 149.508 11.015 149.574 10.985C149.64 10.949 149.709 10.931 149.781 10.931ZM164.874 7.493C164.874 8.447 164.715 9.332 164.397 10.148C164.085 10.958 163.641 11.66 163.065 12.254C162.489 12.848 161.796 13.313 160.986 13.649C160.176 13.979 159.276 14.144 158.286 14.144C157.302 14.144 156.405 13.979 155.595 13.649C154.785 13.313 154.089 12.848 153.507 12.254C152.931 11.66 152.484 10.958 152.166 10.148C151.848 9.332 151.689 8.447 151.689 7.493C151.689 6.539 151.848 5.657 152.166 4.847C152.484 4.031 152.931 3.326 153.507 2.732C154.089 2.138 154.785 1.676 155.595 1.346C156.405 1.01 157.302 0.842 158.286 0.842C158.946 0.842 159.567 0.92 160.149 1.076C160.731 1.226 161.265 1.442 161.751 1.724C162.237 2 162.672 2.339 163.056 2.741C163.446 3.137 163.776 3.581 164.046 4.073C164.316 4.565 164.52 5.099 164.658 5.675C164.802 6.251 164.874 6.857 164.874 7.493ZM162.399 7.493C162.399 6.779 162.303 6.14 162.111 5.576C161.919 5.006 161.646 4.523 161.292 4.127C160.938 3.731 160.506 3.428 159.996 3.218C159.492 3.008 158.922 2.903 158.286 2.903C157.65 2.903 157.077 3.008 156.567 3.218C156.063 3.428 155.631 3.731 155.271 4.127C154.917 4.523 154.644 5.006 154.452 5.576C154.26 6.14 154.164 6.779 154.164 7.493C154.164 8.207 154.26 8.849 154.452 9.419C154.644 9.983 154.917 10.463 155.271 10.859C155.631 11.249 156.063 11.549 156.567 11.759C157.077 11.969 157.65 12.074 158.286 12.074C158.922 12.074 159.492 11.969 159.996 11.759C160.506 11.549 160.938 11.249 161.292 10.859C161.646 10.463 161.919 9.983 162.111 9.419C162.303 8.849 162.399 8.207 162.399 7.493ZM175.937 10.931C176.069 10.931 176.186 10.982 176.288 11.084L177.242 12.119C176.714 12.773 176.063 13.274 175.289 13.622C174.521 13.97 173.597 14.144 172.517 14.144C171.551 14.144 170.681 13.979 169.907 13.649C169.139 13.319 168.482 12.86 167.936 12.272C167.39 11.684 166.97 10.982 166.676 10.166C166.388 9.35 166.244 8.459 166.244 7.493C166.244 6.515 166.4 5.621 166.712 4.811C167.024 3.995 167.462 3.293 168.026 2.705C168.596 2.117 169.274 1.661 170.06 1.337C170.846 1.007 171.716 0.842 172.67 0.842C173.618 0.842 174.458 0.998 175.19 1.31C175.928 1.622 176.555 2.03 177.071 2.534L176.261 3.659C176.213 3.731 176.15 3.794 176.072 3.848C176 3.902 175.898 3.929 175.766 3.929C175.676 3.929 175.583 3.905 175.487 3.857C175.391 3.803 175.286 3.74 175.172 3.668C175.058 3.59 174.926 3.506 174.776 3.416C174.626 3.326 174.452 3.245 174.254 3.173C174.056 3.095 173.825 3.032 173.561 2.984C173.303 2.93 173.003 2.903 172.661 2.903C172.079 2.903 171.545 3.008 171.059 3.218C170.579 3.422 170.165 3.722 169.817 4.118C169.469 4.508 169.199 4.988 169.007 5.558C168.815 6.122 168.719 6.767 168.719 7.493C168.719 8.225 168.821 8.876 169.025 9.446C169.235 10.016 169.517 10.496 169.871 10.886C170.225 11.276 170.642 11.576 171.122 11.786C171.602 11.99 172.118 12.092 172.67 12.092C173 12.092 173.297 12.074 173.561 12.038C173.831 12.002 174.077 11.945 174.299 11.867C174.527 11.789 174.74 11.69 174.938 11.57C175.142 11.444 175.343 11.291 175.541 11.111C175.601 11.057 175.664 11.015 175.73 10.985C175.796 10.949 175.865 10.931 175.937 10.931ZM189.871 0.985999V14H187.441V8.312H181.33V14H178.9V0.985999H181.33V6.584H187.441V0.985999H189.871ZM195.199 2.912V6.521H199.753V8.384H195.199V12.065H200.977V14H192.769V0.985999H200.977V2.912H195.199ZM209.999 9.086L208.415 4.757C208.337 4.565 208.256 4.337 208.172 4.073C208.088 3.809 208.004 3.524 207.92 3.218C207.842 3.524 207.761 3.812 207.677 4.082C207.593 4.346 207.512 4.577 207.434 4.775L205.859 9.086H209.999ZM214.274 14H212.402C212.192 14 212.021 13.949 211.889 13.847C211.757 13.739 211.658 13.607 211.592 13.451L210.62 10.796H205.229L204.257 13.451C204.209 13.589 204.116 13.715 203.978 13.829C203.84 13.943 203.669 14 203.465 14H201.575L206.696 0.985999H209.162L214.274 14ZM214.946 12.776C214.946 12.59 214.979 12.413 215.045 12.245C215.117 12.077 215.213 11.933 215.333 11.813C215.453 11.693 215.597 11.597 215.765 11.525C215.933 11.453 216.113 11.417 216.305 11.417C216.497 11.417 216.674 11.453 216.836 11.525C217.004 11.597 217.148 11.693 217.268 11.813C217.394 11.933 217.493 12.077 217.565 12.245C217.637 12.413 217.673 12.59 217.673 12.776C217.673 12.968 217.637 13.148 217.565 13.316C217.493 13.478 217.394 13.619 217.268 13.739C217.148 13.859 217.004 13.952 216.836 14.018C216.674 14.09 216.497 14.126 216.305 14.126C216.113 14.126 215.933 14.09 215.765 14.018C215.597 13.952 215.453 13.859 215.333 13.739C215.213 13.619 215.117 13.478 215.045 13.316C214.979 13.148 214.946 12.968 214.946 12.776ZM222.322 2.912V6.521H226.876V8.384H222.322V12.065H228.1V14H219.892V0.985999H228.1V2.912H222.322ZM237.176 3.353C237.104 3.479 237.026 3.572 236.942 3.632C236.864 3.686 236.765 3.713 236.645 3.713C236.519 3.713 236.381 3.668 236.231 3.578C236.087 3.482 235.913 3.377 235.709 3.263C235.505 3.149 235.265 3.047 234.989 2.957C234.719 2.861 234.398 2.813 234.026 2.813C233.69 2.813 233.396 2.855 233.144 2.939C232.892 3.017 232.679 3.128 232.505 3.272C232.337 3.416 232.211 3.59 232.127 3.794C232.043 3.992 232.001 4.211 232.001 4.451C232.001 4.757 232.085 5.012 232.253 5.216C232.427 5.42 232.655 5.594 232.937 5.738C233.219 5.882 233.54 6.011 233.9 6.125C234.26 6.239 234.629 6.362 235.007 6.494C235.385 6.62 235.754 6.77 236.114 6.944C236.474 7.112 236.795 7.328 237.077 7.592C237.359 7.85 237.584 8.168 237.752 8.546C237.926 8.924 238.013 9.383 238.013 9.923C238.013 10.511 237.911 11.063 237.707 11.579C237.509 12.089 237.215 12.536 236.825 12.92C236.441 13.298 235.97 13.598 235.412 13.82C234.854 14.036 234.215 14.144 233.495 14.144C233.081 14.144 232.673 14.102 232.271 14.018C231.869 13.94 231.482 13.826 231.11 13.676C230.744 13.526 230.399 13.346 230.075 13.136C229.751 12.926 229.463 12.692 229.211 12.434L229.922 11.273C229.982 11.189 230.06 11.12 230.156 11.066C230.252 11.006 230.354 10.976 230.462 10.976C230.612 10.976 230.774 11.039 230.948 11.165C231.122 11.285 231.329 11.42 231.569 11.57C231.809 11.72 232.088 11.858 232.406 11.984C232.73 12.104 233.117 12.164 233.567 12.164C234.257 12.164 234.791 12.002 235.169 11.678C235.547 11.348 235.736 10.877 235.736 10.265C235.736 9.923 235.649 9.644 235.475 9.428C235.307 9.212 235.082 9.032 234.8 8.888C234.518 8.738 234.197 8.612 233.837 8.51C233.477 8.408 233.111 8.297 232.739 8.177C232.367 8.057 232.001 7.913 231.641 7.745C231.281 7.577 230.96 7.358 230.678 7.088C230.396 6.818 230.168 6.482 229.994 6.08C229.826 5.672 229.742 5.171 229.742 4.577C229.742 4.103 229.835 3.641 230.021 3.191C230.213 2.741 230.489 2.342 230.849 1.994C231.209 1.646 231.653 1.367 232.181 1.157C232.709 0.947 233.315 0.842 233.999 0.842C234.767 0.842 235.475 0.962 236.123 1.202C236.771 1.442 237.323 1.778 237.779 2.21L237.176 3.353Z" fill="#684479"/>
</svg>
